<svg id="visual" viewBox="0 0 200 20" width="200" height="20" xmlns="http://www.w3.org/2000/svg" xmlns:xlink="http://www.w3.org/1999/xlink" version="1.1"><rect x="0" y="0" width="200" height="20" fill="#f7feff"></rect><path d="M0 10L4.8 9.5C9.7 9 19.3 8 28.8 7.8C38.3 7.7 47.7 8.3 57.2 9.2C66.7 10 76.3 11 85.8 10.2C95.3 9.3 104.7 6.7 114.2 5.5C123.7 4.3 133.3 4.7 142.8 4.7C152.3 4.7 161.7 4.3 171.2 4.2C180.7 4 190.3 4 195.2 4L200 4L200 21L195.2 21C190.3 21 180.7 21 171.2 21C161.7 21 152.3 21 142.8 21C133.3 21 123.7 21 114.2 21C104.7 21 95.3 21 85.8 21C76.3 21 66.7 21 57.2 21C47.7 21 38.3 21 28.8 21C19.3 21 9.7 21 4.8 21L0 21Z" fill="#1aa1b9" stroke-linecap="round" stroke-linejoin="miter"></path></svg>