<svg id="visual" viewBox="0 0 200 20" width="200" height="20" xmlns="http://www.w3.org/2000/svg" xmlns:xlink="http://www.w3.org/1999/xlink" version="1.1"><rect x="0" y="0" width="200" height="20" fill="#f7feff"></rect><path d="M0 10L5.5 9.3C11 8.7 22 7.3 33.2 7.2C44.3 7 55.7 8 66.8 8.7C78 9.3 89 9.7 100 10C111 10.3 122 10.7 133.2 11.2C144.3 11.7 155.7 12.3 166.8 11.5C178 10.7 189 8.3 194.5 7.2L200 6L200 0L194.5 0C189 0 178 0 166.8 0C155.7 0 144.3 0 133.2 0C122 0 111 0 100 0C89 0 78 0 66.8 0C55.7 0 44.3 0 33.2 0C22 0 11 0 5.5 0L0 0Z" fill="#43d5da" stroke-linecap="round" stroke-linejoin="miter"></path></svg>