<svg id="visual" viewBox="0 0 200 20" width="200" height="20" xmlns="http://www.w3.org/2000/svg" xmlns:xlink="http://www.w3.org/1999/xlink" version="1.1"><rect x="0" y="0" width="200" height="20" fill="#f7feff"></rect><path d="M0 11L5.5 10.2C11 9.3 22 7.7 33.2 7.7C44.3 7.7 55.7 9.3 66.8 10.5C78 11.7 89 12.3 100 12.2C111 12 122 11 133.2 10.7C144.3 10.3 155.7 10.7 166.8 9.7C178 8.7 189 6.3 194.5 5.2L200 4L200 0L194.5 0C189 0 178 0 166.8 0C155.7 0 144.3 0 133.2 0C122 0 111 0 100 0C89 0 78 0 66.8 0C55.7 0 44.3 0 33.2 0C22 0 11 0 5.5 0L0 0Z" fill="#5573d4" stroke-linecap="round" stroke-linejoin="miter"></path></svg>