<svg id="visual" viewBox="0 0 200 20" width="200" height="20" xmlns="http://www.w3.org/2000/svg" xmlns:xlink="http://www.w3.org/1999/xlink" version="1.1"><rect x="0" y="0" width="200" height="20" fill="#f7feff"></rect><path d="M0 7L8.3 7.5C16.7 8 33.3 9 50 8.5C66.7 8 83.3 6 100 5.8C116.7 5.7 133.3 7.3 150 7.7C166.7 8 183.3 7 191.7 6.5L200 6L200 21L191.7 21C183.3 21 166.7 21 150 21C133.3 21 116.7 21 100 21C83.3 21 66.7 21 50 21C33.3 21 16.7 21 8.3 21L0 21Z" fill="#5573d4" stroke-linecap="round" stroke-linejoin="miter"></path></svg>